<mxfile host="65bd71144e">
    <diagram id="evZOq1ipROUwKTbdPmKF" name="ページ1">
        <mxGraphModel dx="1160" dy="779" grid="1" gridSize="10" guides="1" tooltips="1" connect="1" arrows="1" fold="1" page="1" pageScale="1" pageWidth="827" pageHeight="1169" math="0" shadow="0">
            <root>
                <mxCell id="0"/>
                <mxCell id="1" parent="0"/>
                <mxCell id="2" value="Resource1" style="rounded=0;whiteSpace=wrap;html=1;fillColor=#1ba1e2;fontColor=#ffffff;strokeColor=#006EAF;" parent="1" vertex="1">
                    <mxGeometry x="100" y="90" width="100" height="30" as="geometry"/>
                </mxCell>
                <mxCell id="3" value="" style="endArrow=classic;html=1;" parent="1" edge="1">
                    <mxGeometry width="50" height="50" relative="1" as="geometry">
                        <mxPoint x="80" y="280" as="sourcePoint"/>
                        <mxPoint x="80" y="80" as="targetPoint"/>
                    </mxGeometry>
                </mxCell>
                <mxCell id="4" value="" style="endArrow=classic;html=1;" parent="1" edge="1">
                    <mxGeometry width="50" height="50" relative="1" as="geometry">
                        <mxPoint x="80" y="280" as="sourcePoint"/>
                        <mxPoint x="680" y="280" as="targetPoint"/>
                    </mxGeometry>
                </mxCell>
                <mxCell id="5" value="task1" style="text;html=1;strokeColor=none;fillColor=none;align=center;verticalAlign=middle;whiteSpace=wrap;rounded=0;" parent="1" vertex="1">
                    <mxGeometry x="10" y="90" width="60" height="30" as="geometry"/>
                </mxCell>
                <mxCell id="6" value="task3" style="text;html=1;strokeColor=none;fillColor=none;align=center;verticalAlign=middle;whiteSpace=wrap;rounded=0;" parent="1" vertex="1">
                    <mxGeometry x="10" y="170" width="60" height="30" as="geometry"/>
                </mxCell>
                <mxCell id="7" value="task4" style="text;html=1;strokeColor=none;fillColor=none;align=center;verticalAlign=middle;whiteSpace=wrap;rounded=0;" parent="1" vertex="1">
                    <mxGeometry x="10" y="210" width="60" height="30" as="geometry"/>
                </mxCell>
                <mxCell id="8" value="task5" style="text;html=1;strokeColor=none;fillColor=none;align=center;verticalAlign=middle;whiteSpace=wrap;rounded=0;" parent="1" vertex="1">
                    <mxGeometry x="10" y="250" width="60" height="30" as="geometry"/>
                </mxCell>
                <mxCell id="9" value="task2" style="text;html=1;strokeColor=none;fillColor=none;align=center;verticalAlign=middle;whiteSpace=wrap;rounded=0;" parent="1" vertex="1">
                    <mxGeometry x="10" y="130" width="60" height="30" as="geometry"/>
                </mxCell>
                <mxCell id="10" value="Time" style="text;html=1;strokeColor=none;fillColor=none;align=center;verticalAlign=middle;whiteSpace=wrap;rounded=0;" parent="1" vertex="1">
                    <mxGeometry x="620" y="280" width="60" height="30" as="geometry"/>
                </mxCell>
                <mxCell id="11" value="Resource1" style="rounded=0;whiteSpace=wrap;html=1;fillColor=#1ba1e2;fontColor=#ffffff;strokeColor=#006EAF;" parent="1" vertex="1">
                    <mxGeometry x="200" y="130" width="100" height="30" as="geometry"/>
                </mxCell>
                <mxCell id="12" value="Resource1" style="rounded=0;whiteSpace=wrap;html=1;fillColor=#1ba1e2;fontColor=#ffffff;strokeColor=#006EAF;" parent="1" vertex="1">
                    <mxGeometry x="300" y="170" width="100" height="30" as="geometry"/>
                </mxCell>
                <mxCell id="13" value="Resource1" style="rounded=0;whiteSpace=wrap;html=1;fillColor=#1ba1e2;fontColor=#ffffff;strokeColor=#006EAF;" parent="1" vertex="1">
                    <mxGeometry x="400" y="210" width="100" height="30" as="geometry"/>
                </mxCell>
                <mxCell id="14" value="Resource1" style="rounded=0;whiteSpace=wrap;html=1;fillColor=#1ba1e2;fontColor=#ffffff;strokeColor=#006EAF;" parent="1" vertex="1">
                    <mxGeometry x="500" y="250" width="100" height="30" as="geometry"/>
                </mxCell>
                <mxCell id="15" value="任意の時刻において、(容量・向き等)の制約を満たしていればOK" style="text;html=1;strokeColor=default;fillColor=none;align=center;verticalAlign=middle;whiteSpace=wrap;rounded=0;" vertex="1" parent="1">
                    <mxGeometry x="125" y="300" width="250" height="70" as="geometry"/>
                </mxCell>
                <mxCell id="16" value="Resource2" style="rounded=0;whiteSpace=wrap;html=1;fillColor=#a20025;fontColor=#ffffff;strokeColor=#6F0000;" vertex="1" parent="1">
                    <mxGeometry x="200" y="90" width="100" height="30" as="geometry"/>
                </mxCell>
                <mxCell id="17" value="Resource3" style="rounded=0;whiteSpace=wrap;html=1;fillColor=#60a917;fontColor=#ffffff;strokeColor=#2D7600;" vertex="1" parent="1">
                    <mxGeometry x="300" y="130" width="100" height="30" as="geometry"/>
                </mxCell>
                <mxCell id="18" value="Resource2" style="rounded=0;whiteSpace=wrap;html=1;fillColor=#a20025;fontColor=#ffffff;strokeColor=#6F0000;" vertex="1" parent="1">
                    <mxGeometry x="400" y="170" width="100" height="30" as="geometry"/>
                </mxCell>
                <mxCell id="19" value="Resource4" style="rounded=0;whiteSpace=wrap;html=1;fillColor=#d80073;fontColor=#ffffff;strokeColor=#A50040;" vertex="1" parent="1">
                    <mxGeometry x="500" y="210" width="100" height="30" as="geometry"/>
                </mxCell>
                <mxCell id="20" value="Resource3" style="rounded=0;whiteSpace=wrap;html=1;fillColor=#60a917;fontColor=#ffffff;strokeColor=#2D7600;" vertex="1" parent="1">
                    <mxGeometry x="600" y="250" width="100" height="30" as="geometry"/>
                </mxCell>
                <mxCell id="21" value="" style="endArrow=classic;html=1;exitX=0.5;exitY=0;exitDx=0;exitDy=0;" edge="1" parent="1" source="15">
                    <mxGeometry width="50" height="50" relative="1" as="geometry">
                        <mxPoint x="250" y="290" as="sourcePoint"/>
                        <mxPoint x="249.5" y="80" as="targetPoint"/>
                    </mxGeometry>
                </mxCell>
                <mxCell id="22" value="●エージェントは各Taskごとに行動の判断を行う。&lt;br&gt;●行動の判断は、各Taskの次のフローを実行するかどうかの二択。&lt;br&gt;●エピソード内のstepは次のように推移。&lt;br&gt;　・(step1)task1を次に進めるか？→yes or no&lt;br&gt;　・(step2)task2を次に進めるか？→yes or no&lt;br&gt;　・...&lt;br&gt;　・計画終了&lt;br&gt;&lt;br&gt;行動の選択肢が常に2択であることから、一般的な強化学習の手法を適用しやすくならないか。&lt;br&gt;&lt;br&gt;また、4taskの計画を行う場合かつ、合計24stepで1エピソードが形成される場合。&lt;br&gt;行動空間は、&lt;br&gt;おおまかな計算として、&lt;br&gt;24! =&amp;nbsp;&lt;span id=&quot;cwos&quot; class=&quot;qv3Wpe&quot;&gt;6.204484e+23&lt;/span&gt;&lt;br&gt;&amp;nbsp;vs &lt;br&gt;2^24 =&amp;nbsp;&lt;span id=&quot;cwos&quot; class=&quot;qv3Wpe&quot;&gt;16777216&lt;br&gt;と改善される。&lt;br&gt;&lt;/span&gt;" style="text;html=1;strokeColor=none;fillColor=none;align=left;verticalAlign=top;whiteSpace=wrap;rounded=0;" vertex="1" parent="1">
                    <mxGeometry x="70" y="390" width="700" height="270" as="geometry"/>
                </mxCell>
            </root>
        </mxGraphModel>
    </diagram>
</mxfile>